<?xml version="1.0" standalone="no"?>
<!DOCTYPE svg PUBLIC "-//W3C//DTD SVG 20010904//EN"
 "http://www.w3.org/TR/2001/REC-SVG-20010904/DTD/svg10.dtd">
<svg version="1.0" xmlns="http://www.w3.org/2000/svg"
 width="460.000000pt" height="460.000000pt" viewBox="0 0 460.000000 460.000000"
 preserveAspectRatio="xMidYMid meet">
<metadata>
Created by potrace 1.14, written by Peter Selinger 2001-2017
</metadata>
<g transform="translate(0.000000,460.000000) scale(0.100000,-0.100000)"
fill="#000000" stroke="none">
<path d="M1094 4368 c-19 -57 -10 -78 34 -78 12 0 22 -4 22 -10 0 -6 39 -10
98 -10 53 0 113 -5 132 -10 19 -6 72 -13 118 -17 45 -3 82 -10 82 -14 0 -5 17
-9 38 -9 20 0 50 -7 66 -15 15 -8 46 -15 67 -15 22 0 39 -4 39 -9 0 -5 23 -12
50 -16 28 -4 50 -11 50 -16 0 -5 15 -9 34 -9 19 0 36 -5 38 -12 2 -6 15 -13
29 -15 13 -2 26 -8 27 -13 2 -6 19 -10 38 -10 19 0 37 -6 40 -13 2 -7 14 -14
27 -14 12 -1 23 -7 25 -13 2 -5 15 -10 28 -10 13 0 24 -4 24 -10 0 -5 11 -12
25 -16 14 -3 25 -10 25 -15 0 -5 11 -9 24 -9 14 0 31 -7 40 -15 8 -8 19 -15
25 -15 6 0 11 -4 11 -9 0 -5 11 -12 25 -15 14 -4 25 -11 25 -16 0 -6 9 -10 19
-10 10 0 21 -7 25 -15 3 -8 12 -15 21 -15 8 0 15 -4 15 -9 0 -5 11 -12 25 -15
14 -4 25 -11 25 -16 0 -6 5 -10 10 -10 6 0 22 -11 36 -25 14 -14 30 -25 36
-25 6 0 21 -11 34 -25 13 -14 32 -25 44 -25 11 0 20 -5 20 -11 0 -6 7 -17 15
-25 8 -9 15 -26 15 -39 0 -13 -7 -30 -15 -39 -8 -8 -15 -19 -15 -25 0 -6 -7
-11 -15 -11 -8 0 -15 -4 -15 -9 0 -5 -9 -13 -20 -16 -11 -4 -18 -11 -15 -16 4
-5 2 -9 -4 -9 -6 0 -28 -18 -50 -40 -22 -22 -44 -40 -50 -40 -6 0 -11 -7 -11
-15 0 -8 -5 -15 -10 -15 -6 0 -43 -31 -82 -70 -39 -38 -75 -70 -79 -70 -4 0
-32 -25 -63 -55 -30 -30 -58 -55 -61 -55 -10 0 -35 -28 -35 -39 0 -6 -7 -11
-15 -11 -8 0 -15 -4 -15 -10 0 -5 -11 -12 -25 -16 -14 -3 -25 -13 -25 -21 0
-8 -4 -11 -10 -8 -5 3 -10 -1 -10 -9 0 -9 -7 -16 -15 -16 -8 0 -15 -7 -15 -15
0 -8 -3 -14 -8 -13 -4 2 -29 -18 -56 -44 -27 -27 -52 -48 -57 -48 -4 0 -26
-18 -48 -40 -22 -22 -45 -40 -51 -40 -5 0 -10 -7 -10 -15 0 -8 -5 -15 -11 -15
-14 0 -39 -25 -39 -39 0 -6 -9 -11 -20 -11 -11 0 -61 -41 -120 -100 -55 -55
-105 -100 -110 -100 -6 0 -10 -7 -10 -15 0 -8 -7 -15 -16 -15 -8 0 -12 -4 -9
-10 3 -5 -1 -10 -9 -10 -9 0 -16 -5 -16 -10 0 -6 -11 -16 -25 -22 -14 -6 -25
-19 -25 -30 0 -10 -7 -18 -15 -18 -8 0 -25 -11 -39 -25 -14 -14 -30 -25 -36
-25 -5 0 -10 -7 -10 -15 0 -8 -5 -15 -11 -15 -16 0 -39 -26 -39 -44 0 -15 -33
-56 -45 -56 -7 0 -30 -19 -48 -38 -7 -7 -18 -18 -25 -25 -7 -7 -38 -36 -68
-64 -30 -29 -59 -53 -64 -53 -6 0 -10 -7 -10 -15 0 -8 -5 -15 -10 -15 -6 0
-22 -11 -36 -25 -14 -14 -31 -25 -39 -25 -8 0 -15 -5 -15 -11 0 -6 -7 -17 -15
-25 -19 -20 -19 -84 0 -110 8 -11 14 -41 15 -72 0 -29 4 -51 9 -48 5 3 12 -17
16 -46 11 -75 37 -118 74 -118 12 0 21 5 21 10 0 6 7 10 15 10 9 0 18 7 21 15
4 8 17 15 30 15 13 0 24 4 24 10 0 5 11 12 25 16 14 3 25 10 25 15 0 5 11 9
25 9 14 0 25 4 25 10 0 5 11 12 25 16 14 3 25 10 25 14 0 4 11 11 25 14 14 4
25 11 25 16 0 6 11 10 25 10 14 0 25 3 25 8 0 4 17 16 38 27 40 22 192 167
192 184 0 6 4 10 8 9 5 -2 30 18 57 44 26 26 52 45 56 42 5 -3 9 4 9 15 0 13
8 23 24 27 13 3 28 16 35 30 6 13 15 24 21 24 15 0 40 25 40 39 0 6 4 11 9 11
17 0 80 71 98 110 10 21 30 40 42 40 6 0 11 5 11 10 0 6 23 33 50 60 l50 50 0
69 c0 49 4 72 15 81 8 7 15 17 15 22 0 5 15 24 34 41 18 18 36 42 40 55 4 12
12 22 17 22 5 0 9 5 9 11 0 14 25 39 39 39 6 0 11 11 11 25 0 16 6 25 15 25 8
0 15 5 15 11 0 6 16 25 36 44 19 18 36 43 37 54 1 12 5 21 10 21 9 0 37 25 37
34 0 3 13 19 30 36 16 17 30 36 30 43 0 7 9 19 20 27 11 8 20 20 20 27 0 7 7
13 15 13 13 0 20 18 16 43 0 4 6 7 14 7 8 0 15 7 15 16 0 8 5 12 10 9 6 -3 10
-2 10 4 0 6 12 24 28 40 43 47 52 59 52 71 0 5 5 10 10 10 6 0 10 7 10 15 0 8
7 15 15 15 8 0 15 8 15 19 0 10 11 27 25 37 14 10 25 24 25 31 0 7 7 13 15 13
8 0 15 6 15 13 0 7 14 14 31 15 26 2 41 -8 100 -67 38 -39 69 -75 69 -81 0 -5
7 -10 15 -10 8 0 15 -5 15 -10 0 -6 11 -22 25 -36 14 -14 25 -31 25 -39 0 -8
8 -15 17 -15 9 0 14 -3 10 -6 -3 -3 5 -16 17 -28 13 -11 26 -31 30 -43 4 -13
12 -23 17 -23 5 0 9 -5 9 -10 0 -6 6 -18 13 -26 6 -8 17 -20 22 -27 6 -7 19
-29 30 -49 11 -21 22 -38 25 -38 3 0 14 -20 25 -45 11 -25 23 -45 27 -45 5 0
8 -8 8 -19 0 -10 7 -24 15 -31 8 -7 15 -21 15 -32 0 -10 4 -17 9 -14 5 4 12
-7 16 -24 4 -16 11 -30 16 -30 5 0 9 -11 9 -25 0 -14 4 -25 10 -25 5 0 12 -16
16 -35 3 -19 10 -35 15 -35 5 0 9 -9 9 -19 0 -11 4 -22 9 -26 5 -3 12 -19 16
-35 4 -17 12 -30 18 -30 7 0 6 -4 -3 -10 -10 -6 -11 -10 -2 -10 6 0 12 -10 12
-22 1 -13 7 -34 15 -48 8 -14 14 -37 15 -52 0 -16 4 -28 8 -28 9 0 31 -96 39
-167 3 -24 9 -43 13 -43 4 0 11 -29 15 -65 3 -36 11 -65 16 -65 5 0 9 -39 9
-87 0 -53 4 -83 9 -75 6 10 10 7 15 -12 6 -24 11 -26 56 -26 l50 0 0 69 c0 38
-7 84 -15 104 -8 20 -15 61 -15 92 0 30 -4 55 -10 55 -5 0 -10 14 -10 30 0 17
-7 47 -15 67 -8 19 -15 55 -15 79 0 24 -4 44 -9 44 -7 0 -23 67 -20 86 0 4 -4
10 -10 13 -6 4 -11 21 -13 39 -1 18 -5 32 -9 32 -4 0 -10 13 -14 30 -4 17 -11
30 -16 30 -5 0 -9 16 -9 35 0 19 -4 35 -10 35 -5 0 -13 18 -16 41 -5 27 -10
36 -15 27 -7 -10 -9 -9 -9 4 0 19 -30 79 -45 90 -6 5 -4 8 5 8 10 0 11 3 4 8
-6 4 -14 17 -18 30 -4 12 -12 22 -17 22 -5 0 -9 7 -9 15 0 8 -4 15 -9 15 -5 0
-12 11 -15 25 -4 14 -11 25 -16 25 -6 0 -10 11 -10 25 0 14 -4 25 -10 25 -5 0
-12 11 -16 25 -3 14 -10 25 -15 25 -5 0 -9 7 -9 15 0 8 -4 15 -10 15 -5 0 -12
11 -16 25 -3 14 -10 25 -15 25 -5 0 -9 7 -9 15 0 8 -10 24 -23 37 -13 13 -26
31 -30 41 -3 9 -11 17 -17 17 -5 0 -10 7 -10 15 0 9 -11 26 -25 39 -14 13 -25
26 -25 30 0 11 -27 36 -39 36 -6 0 -11 6 -11 13 0 7 -11 24 -25 39 -14 15 -25
32 -25 38 0 5 -7 10 -15 10 -8 0 -15 5 -15 10 0 6 -27 37 -60 70 -54 54 -77
100 -50 100 6 0 10 10 10 21 0 12 11 32 25 45 14 13 25 27 25 32 0 5 7 15 15
22 8 7 15 23 15 36 0 21 -5 24 -36 24 -28 0 -44 -8 -75 -40 -22 -22 -46 -40
-54 -40 -8 0 -15 -4 -15 -10 0 -5 -10 -10 -23 -10 -31 0 -77 22 -77 38 0 6 -5
12 -11 12 -7 0 -26 15 -43 34 -18 18 -42 37 -54 40 -12 4 -22 12 -22 17 0 5
-9 9 -19 9 -10 0 -21 7 -25 15 -3 8 -12 15 -21 15 -8 0 -15 5 -15 10 0 6 -7
10 -15 10 -8 0 -15 4 -15 10 0 5 -11 12 -25 16 -14 3 -25 10 -25 14 0 4 -11
11 -25 14 -14 4 -25 11 -25 16 0 6 -7 10 -14 10 -8 0 -27 11 -42 25 -15 14
-38 25 -50 25 -13 0 -24 3 -24 8 0 14 -62 42 -92 42 -17 0 -28 3 -25 7 10 10
-50 43 -78 43 -14 0 -25 4 -25 9 0 5 -13 12 -30 16 -16 4 -30 11 -30 16 0 5
-15 9 -32 9 -18 0 -42 7 -52 15 -11 8 -35 15 -53 15 -18 0 -33 4 -33 9 0 5
-18 11 -40 15 -22 3 -40 11 -40 16 0 6 -24 10 -54 10 -30 0 -57 4 -60 9 -3 5
-33 12 -66 16 -33 4 -60 11 -60 16 0 5 -45 9 -100 9 -60 0 -100 4 -100 10 0 6
-48 10 -124 10 -120 0 -125 -1 -132 -22z"/>
<path d="M3280 4103 c0 -7 -9 -13 -19 -13 -11 0 -26 -7 -35 -15 -8 -8 -24 -15
-35 -15 -12 0 -21 -4 -21 -10 0 -5 -7 -10 -15 -10 -8 0 -15 -4 -15 -9 0 -5
-10 -13 -22 -17 -12 -3 -28 -12 -35 -20 -15 -15 -18 -68 -3 -59 6 3 10 -1 10
-9 0 -9 5 -16 11 -16 7 0 22 -11 35 -25 28 -30 50 -32 59 -5 3 11 11 20 16 20
5 0 9 7 9 15 0 8 4 15 9 15 5 0 12 14 16 30 4 17 11 30 16 30 5 0 9 9 9 19 0
10 7 21 15 25 17 6 20 43 5 66 -6 10 -10 11 -10 3z"/>
<path d="M1493 3255 c-7 -8 -13 -19 -13 -25 0 -5 -5 -10 -11 -10 -14 0 -39
-25 -39 -39 0 -6 -5 -11 -11 -11 -14 0 -39 -25 -39 -39 0 -6 -7 -11 -15 -11
-8 0 -15 -7 -15 -16 0 -8 -4 -12 -10 -9 -5 3 -10 -1 -10 -9 0 -9 -7 -16 -15
-16 -8 0 -15 -7 -15 -15 0 -8 -4 -15 -10 -15 -5 0 -10 -14 -10 -31 0 -16 4
-28 9 -25 5 4 12 -12 16 -34 4 -22 11 -40 16 -40 5 0 9 -16 9 -35 0 -19 4 -35
9 -35 5 0 11 -18 15 -40 3 -22 11 -40 16 -40 6 0 10 -32 10 -75 0 -41 4 -75 9
-75 5 0 12 -13 16 -29 9 -42 52 -37 97 12 20 20 40 37 47 37 6 0 11 4 11 9 0
5 11 12 25 15 14 4 25 14 25 23 0 9 3 13 6 10 4 -3 15 5 26 18 11 14 26 25 34
25 8 0 14 7 14 15 0 8 7 15 15 15 8 0 15 5 15 11 0 5 5 7 10 4 6 -4 10 6 10
24 0 16 5 31 11 33 12 4 14 118 2 127 -4 3 -17 23 -27 44 -11 20 -22 37 -26
37 -5 0 -11 11 -14 25 -4 14 -11 25 -16 25 -6 0 -10 7 -10 15 0 8 -4 15 -10
15 -5 0 -12 11 -16 25 -3 14 -10 22 -15 19 -5 -3 -9 2 -9 10 0 9 -4 16 -9 16
-5 0 -12 11 -15 25 -4 14 -11 23 -16 20 -6 -3 -10 3 -10 14 0 16 -6 21 -27 21
-16 -1 -34 -7 -40 -15z"/>
<path d="M2077 2343 c-4 -3 -7 -15 -7 -25 0 -10 -4 -18 -9 -18 -5 0 -13 -9
-16 -20 -4 -11 -11 -18 -16 -15 -5 4 -9 1 -9 -4 0 -6 -7 -11 -16 -11 -8 0 -13
-4 -10 -8 6 -9 -29 -42 -44 -42 -6 0 -10 -7 -10 -15 0 -8 -6 -15 -13 -15 -7 0
-19 -9 -27 -19 -7 -11 -17 -18 -22 -15 -4 3 -8 0 -8 -5 0 -6 -7 -11 -15 -11
-8 0 -15 -5 -15 -11 0 -6 -6 -17 -14 -25 -8 -8 -19 -14 -25 -14 -6 0 -11 -7
-11 -15 0 -8 -4 -15 -10 -15 -5 0 -28 -18 -50 -40 -22 -22 -40 -44 -40 -50 0
-5 -5 -10 -11 -10 -7 0 -22 -11 -35 -25 -13 -14 -29 -25 -37 -25 -8 0 -19 -11
-25 -25 -7 -15 -20 -25 -32 -25 -11 0 -19 -3 -18 -8 2 -4 -9 -21 -24 -37 -16
-16 -28 -41 -28 -55 0 -20 -2 -22 -10 -10 -6 10 -10 -199 -11 -600 -1 -652 -2
-693 -19 -698 -5 -2 -8 -8 -4 -13 3 -5 -1 -9 -10 -9 -8 0 -16 -5 -18 -11 -2
-6 -27 -14 -56 -17 -29 -2 -52 -8 -52 -12 0 -4 -29 -8 -65 -9 -36 -1 -77 -9
-92 -16 -16 -8 -52 -15 -81 -15 -29 0 -51 -4 -48 -9 3 -5 -21 -12 -54 -15 -33
-4 -60 -11 -60 -16 0 -6 -11 -10 -24 -10 -16 0 -26 -7 -29 -21 -8 -31 2 -49
30 -49 13 0 21 4 18 10 -4 6 15 10 49 10 30 0 57 4 61 9 3 5 30 13 60 16 30 4
55 11 55 16 0 5 24 9 53 9 28 0 74 7 101 15 27 8 73 15 103 15 29 0 53 4 53 8
0 5 51 12 113 15 62 3 126 11 141 17 15 5 80 10 144 10 79 0 112 3 102 10 -10
6 55 10 192 10 127 0 209 -4 213 -10 3 -6 43 -10 88 -10 45 0 98 -5 117 -10
19 -6 76 -13 125 -17 50 -3 95 -9 100 -13 6 -4 44 -10 85 -14 41 -4 79 -11 84
-16 6 -6 38 -10 73 -10 35 0 63 -4 63 -9 0 -4 27 -11 60 -15 33 -4 60 -11 60
-16 0 -6 23 -10 51 -10 31 0 56 -6 65 -15 9 -8 24 -15 35 -15 11 0 17 -5 14
-10 -4 -6 13 -10 44 -10 48 0 51 1 51 26 0 31 -25 53 -57 54 -13 0 -23 5 -23
10 0 6 -15 10 -34 10 -18 0 -47 7 -62 15 -16 8 -46 15 -66 15 -21 0 -38 5 -38
10 0 6 -21 10 -47 10 -27 0 -57 7 -67 15 -11 8 -41 15 -67 15 -26 0 -51 4 -54
10 -3 6 -28 10 -55 10 -30 0 -54 6 -64 15 -8 8 -18 15 -22 15 -15 0 -33 37
-34 68 0 17 -4 32 -10 32 -5 0 -13 18 -16 40 -4 22 -10 40 -15 40 -5 0 -9 15
-9 33 0 17 -7 41 -15 51 -8 11 -15 37 -15 58 0 21 -4 38 -10 38 -5 0 -10 9
-10 21 0 11 -7 27 -15 35 -8 9 -15 33 -15 55 0 21 -4 39 -10 39 -5 0 -12 16
-16 35 -3 19 -10 38 -15 41 -5 3 -9 21 -9 40 0 19 -4 34 -9 34 -5 0 -12 20
-16 45 -3 25 -10 43 -16 40 -5 -4 -9 12 -9 34 0 23 -4 41 -10 41 -5 0 -12 22
-16 50 -4 28 -10 50 -15 50 -5 0 -9 11 -9 25 0 14 -4 25 -9 25 -5 0 -12 23
-16 50 -4 28 -11 50 -16 50 -5 0 -9 11 -9 24 0 14 -4 28 -10 31 -5 3 -12 28
-16 55 -4 28 -10 50 -15 50 -5 0 -9 10 -9 23 0 13 -7 32 -15 43 -8 10 -15 34
-15 52 0 17 -4 32 -9 32 -5 0 -12 23 -16 50 -4 28 -11 50 -16 50 -5 0 -9 14
-9 30 0 17 -4 30 -9 30 -5 0 -12 18 -16 40 -4 22 -11 42 -16 46 -5 3 -9 15 -9
27 0 19 -12 60 -40 132 -12 33 -28 88 -35 123 -6 30 -9 32 -49 32 -24 0 -46
-3 -49 -7z m3 -1083 c11 -11 20 -24 20 -30 0 -5 5 -10 10 -10 6 0 10 -9 10
-21 0 -11 7 -27 15 -35 8 -9 15 -24 15 -35 0 -11 5 -17 10 -14 6 3 10 -4 10
-18 0 -14 7 -30 15 -37 8 -7 15 -23 15 -36 0 -13 4 -24 9 -24 5 0 12 -11 15
-25 4 -14 11 -25 16 -25 6 0 10 -13 10 -30 0 -16 4 -30 10 -30 5 0 12 -11 16
-25 3 -14 10 -25 15 -25 5 0 9 -15 9 -34 0 -21 6 -36 15 -40 8 -3 15 -15 15
-26 0 -11 5 -20 10 -20 6 0 10 -9 10 -19 0 -21 30 -84 43 -89 4 -2 7 -12 7
-23 0 -10 8 -34 18 -53 11 -21 17 -47 14 -65 l-4 -31 -79 0 c-46 0 -79 4 -79
10 0 6 -65 10 -176 10 -114 0 -173 -3 -169 -10 4 -6 -20 -10 -64 -10 -50 0
-71 4 -71 13 0 8 -4 7 -10 -3 -6 -9 -10 -10 -10 -3 0 6 -7 19 -16 28 -13 13
-14 21 -6 38 6 12 13 65 15 117 2 53 9 105 15 116 6 11 12 60 13 107 1 48 5
87 9 87 4 0 10 42 14 93 4 50 11 94 16 95 6 2 10 26 10 53 0 37 4 49 15 49 8
0 15 5 15 10 0 6 12 10 28 10 15 1 50 7 77 15 68 19 82 18 105 -5z"/>
</g>
</svg>
